<svg width="51" height="50" viewBox="0 0 51 50" fill="none" xmlns="http://www.w3.org/2000/svg">
<path d="M34.72 30.5725C34.2764 30.5723 33.8511 30.3959 33.5376 30.0821C33.2241 29.7683 33.0481 29.3428 33.0483 28.8992C33.0486 28.4556 33.225 28.0303 33.5388 27.7168C33.8526 27.4033 34.2781 27.2273 34.7217 27.2275C35.1652 27.2275 35.5906 27.4038 35.9043 27.7174C36.218 28.0311 36.3942 28.4565 36.3942 28.9C36.3942 29.3436 36.218 29.769 35.9043 30.0827C35.5906 30.3963 35.1652 30.5725 34.7217 30.5725H34.72ZM16.3133 30.5725C16.0937 30.5724 15.8762 30.5291 15.6734 30.4449C15.4705 30.3608 15.2862 30.2375 15.1309 30.0821C14.8174 29.7683 14.6414 29.3428 14.6417 28.8992C14.6419 28.4556 14.8183 28.0303 15.1321 27.7168C15.4459 27.4033 15.8714 27.2273 16.315 27.2275C16.7586 27.2275 17.184 27.4038 17.4976 27.7174C17.8113 28.0311 17.9875 28.4565 17.9875 28.9C17.9875 29.3436 17.8113 29.769 17.4976 30.0827C17.184 30.3963 16.7586 30.5725 16.315 30.5725H16.3133ZM35.3133 20.5425L38.6567 14.7775C38.7466 14.6182 38.7696 14.4296 38.7205 14.2534C38.6714 14.0771 38.5543 13.9275 38.395 13.8375C38.2356 13.7476 38.0471 13.7246 37.8708 13.7737C37.6945 13.8228 37.545 13.9399 37.455 14.0992L34.0767 19.9325C31.3937 18.7062 28.4766 18.0761 25.5267 18.0859C22.4433 18.0859 19.535 18.7492 16.9583 19.9159L13.58 14.0825C13.5355 14.0038 13.4758 13.9345 13.4045 13.8788C13.3332 13.823 13.2516 13.7818 13.1644 13.7576C13.0772 13.7334 12.9861 13.7266 12.8963 13.7376C12.8064 13.7486 12.7196 13.7772 12.6408 13.8217C12.562 13.8663 12.4928 13.9259 12.437 13.9972C12.3813 14.0685 12.3401 14.1501 12.3159 14.2373C12.2917 14.3245 12.2849 14.4156 12.2959 14.5054C12.3069 14.5953 12.3355 14.6821 12.38 14.7609L15.705 20.5242C9.99333 23.6409 6.075 29.4242 5.5 36.2675H45.5C44.9433 29.4409 41.0417 23.6592 35.3133 20.5425Z" fill="url(#paint0_linear_1641_12)"/>
<defs>
<linearGradient id="paint0_linear_1641_12" x1="45.5" y1="36.7325" x2="44.5" y2="15.7325" gradientUnits="userSpaceOnUse">
<stop stop-color="#0051FF"/>
<stop offset="1" stop-color="#00CEFF"/>
</linearGradient>
</defs>
</svg>
