<svg width="51" height="50" viewBox="0 0 51 50" fill="none" xmlns="http://www.w3.org/2000/svg">
<path d="M35.6635 26.0247C35.6462 23.0739 36.9831 20.8499 39.683 19.2101C38.173 17.0467 35.8885 15.8569 32.8771 15.6275C30.0257 15.4026 26.9061 17.289 25.7639 17.289C24.5567 17.289 21.7962 15.7054 19.6242 15.7054C15.1417 15.7747 10.3779 19.2793 10.3779 26.4098C10.3779 28.517 10.763 30.6933 11.5332 32.9346C12.5629 35.8854 16.2753 43.1154 20.1477 42.9986C22.1727 42.951 23.6048 41.5621 26.2398 41.5621C28.7969 41.5621 30.1209 42.9986 32.3795 42.9986C36.2865 42.9424 39.6441 36.37 40.6219 33.4105C35.3822 30.9399 35.6635 26.1762 35.6635 26.0247ZM31.1161 12.8281C33.3097 10.2234 33.1107 7.85237 33.0458 7C31.1074 7.1125 28.8662 8.31966 27.5898 9.80374C26.1836 11.396 25.3572 13.3647 25.5346 15.5843C27.6287 15.7444 29.5411 14.667 31.1161 12.8281Z" fill="url(#paint0_linear_1641_520)"/>
<defs>
<linearGradient id="paint0_linear_1641_520" x1="13.8779" y1="16.5" x2="40.3779" y2="32.5" gradientUnits="userSpaceOnUse">
<stop stop-color="#FE19FF"/>
<stop offset="1" stop-color="#FF9100"/>
</linearGradient>
</defs>
</svg>
